<svg width="125" height="33" viewBox="0 0 125 33" fill="none" xmlns="http://www.w3.org/2000/svg">
<path fill-rule="evenodd" clip-rule="evenodd" d="M27.8086 31.2165H41.5992L47.7383 9.26562H33.9477L27.8086 31.2165ZM32.5384 22.1674H41.7227L43.0084 18.3147H33.8241L32.5384 22.1674Z" fill="white"/>
<path fill-rule="evenodd" clip-rule="evenodd" d="M10.458 14.1433L5.1875 15.8358L21.9076 32.5L26.0335 31.2119L33.5875 4.42518L32.5741 0.5L20.9468 3.45124L21.5982 7.19463L28.5503 5.42713L22.8474 27.3414L10.458 14.1433Z" fill="white"/>
<path fill-rule="evenodd" clip-rule="evenodd" d="M20.1648 18.2131L21.5514 13.7607L13.7182 5.26562L1 8.48143L1.94681 12.5546L12.0604 9.69896L20.1648 18.2131Z" fill="white" stroke="white" stroke-width="0.0762" stroke-miterlimit="22.9256"/>
<path fill-rule="evenodd" clip-rule="evenodd" d="M43.543 31.2164L118.991 31.2087L125.002 9.25781H49.6761L43.543 31.2164ZM105.605 29.4785V10.9928H116.881C122.917 12.5224 120.959 22.6105 116.881 22.914L111.694 22.9382L109.773 20.5103V29.4816L105.605 29.4785ZM115.313 14.8924C116.81 14.8438 117.87 18.6678 115.313 19.0199L109.773 18.9593V14.9167L115.313 14.8924ZM85.7876 29.4572H81.2524V10.9928H89.0571L92.8008 22.1929L96.5445 10.9928H104.361V29.4572H99.8141L99.7643 15.779L95.122 29.4816H92.8008H90.4796L85.8375 15.779L85.7876 29.4572ZM80.2922 21.0283C80.2922 23.2398 79.615 25.8883 78.0585 27.3247C76.502 28.7612 74.4687 29.4816 71.9587 29.4816C69.4298 29.4816 67.3824 28.7612 65.8119 27.3247C64.2413 25.8883 63.6164 23.2857 63.6164 21.0742V19.4879C63.6164 17.2847 64.2378 14.5914 65.8026 13.1538C67.3695 11.7143 69.4112 10.9928 71.9306 10.9928C74.4313 10.9928 76.4682 11.7143 78.0399 13.1538C79.6093 14.5914 80.2922 17.2387 80.2922 19.4419V21.0283ZM75.7775 19.5421C75.7775 18.2573 75.4432 17.206 74.7725 16.3827C74.1016 15.559 73.1552 15.1484 71.9306 15.1484C70.6825 15.1484 69.7229 15.5559 69.0605 16.3743C68.4 17.1903 68.0696 18.2488 68.0696 19.5421V20.8585C68.0696 22.1601 68.4047 23.2228 69.0746 24.0431C69.7462 24.8657 70.7106 25.2775 71.9587 25.2775C73.1739 25.2775 74.1149 24.8657 74.7819 24.0431C75.447 23.2228 75.7775 22.1601 75.7775 20.8585V19.5421ZM63.6554 29.4816V25.0117H54.9765C53.2862 25.0117 50.8839 17.6527 54.9765 15.1451L61.5614 15.096L63.8068 10.9947H54.2449C48.1238 10.7941 43.5731 27.0653 54.2449 29.4631L63.6554 29.4816Z" fill="white"/>
</svg>
