<svg width="24" height="25" viewBox="0 0 24 25" fill="none" xmlns="http://www.w3.org/2000/svg">
<path d="M20.3198 7.67575L20.3506 7.84584L20.4254 7.94803C20.4292 7.9562 20.4342 7.96716 20.4405 7.98133C20.4654 8.03771 20.4994 8.11965 20.5422 8.22759C20.6275 8.44225 20.7388 8.73692 20.8681 9.08779C21.1262 9.78825 21.4495 10.695 21.7666 11.5948C22.0834 12.4939 22.3931 13.3834 22.6236 14.0482C22.7388 14.3806 22.8342 14.6567 22.9008 14.8497L22.9779 15.0734L22.9981 15.1322L23.0029 15.1462C23.7033 17.3072 22.8695 19.2686 21.354 19.8062C19.8466 20.341 17.9359 19.2994 17.2395 17.1585L17.2256 17.1155L17.2065 17.0745L16.0346 14.5516L15.8329 14.1176H15.3544H8.55704H8.07778L7.87644 14.5525L6.78261 16.9153L6.76843 16.9459L6.75706 16.9777C5.97788 19.1554 4.05718 20.1705 2.64435 19.6493L2.63149 19.6446L2.61846 19.6403C1.20146 19.1756 0.284527 17.1515 0.986929 14.985L0.99194 14.9703L1.01155 14.9127L1.08615 14.6938L1.35367 13.9098C1.57576 13.2596 1.87346 12.3894 2.17599 11.5093C2.47862 10.6289 2.78572 9.73975 3.02673 9.0512C3.14732 8.70666 3.25075 8.41413 3.32855 8.19866C3.39184 8.02336 3.4284 7.92716 3.44266 7.88965C3.44813 7.87525 3.45031 7.8695 3.44946 7.87125L3.49499 7.77793L3.51346 7.67575C3.83522 5.8952 5.535 4.44922 7.61948 4.44922H16.2138C18.2983 4.44922 19.9981 5.8952 20.3198 7.67575Z" stroke="#060F42" stroke-width="1.5" stroke-miterlimit="10"/>
<rect x="13" y="8.19922" width="2" height="2" rx="1" fill="#060F42"/>
<rect x="17" y="8.19922" width="2" height="2" rx="1" fill="#060F42"/>
<rect x="15" y="6.19922" width="2" height="2" rx="1" fill="#060F42"/>
<rect x="15" y="10.1992" width="2" height="2" rx="1" fill="#060F42"/>
<line x1="8" y1="7.19922" x2="8" y2="10.6992" stroke="#060F42" stroke-width="1.5" stroke-linecap="round"/>
<line x1="9.75" y1="8.94922" x2="6.25" y2="8.94922" stroke="#060F42" stroke-width="1.5" stroke-linecap="round"/>
</svg>
