<svg width="32" height="33" viewBox="0 0 32 33" fill="none" xmlns="http://www.w3.org/2000/svg">
<rect y="0.767578" width="31.9992" height="32" rx="15.9996" fill="#F4F8FB"/>
<path d="M12.6672 16.7676C12.6672 14.9267 14.1591 13.434 16 13.434C17.8409 13.434 19.3336 14.9267 19.3336 16.7676C19.3336 18.6085 17.8409 20.1012 16 20.1012C14.1591 20.1012 12.6672 18.6085 12.6672 16.7676ZM10.8651 16.7676C10.8651 19.6036 13.164 21.9025 16 21.9025C18.836 21.9025 21.1349 19.6036 21.1349 16.7676C21.1349 13.9316 18.836 11.6327 16 11.6327C13.164 11.6327 10.8651 13.9316 10.8651 16.7676ZM20.1382 11.4291C20.1381 11.6664 20.2084 11.8985 20.3401 12.0959C20.4719 12.2933 20.6593 12.4471 20.8785 12.5381C21.0977 12.629 21.339 12.6528 21.5718 12.6066C21.8046 12.5604 22.0185 12.4462 22.1863 12.2784C22.3542 12.1107 22.4686 11.8969 22.515 11.6642C22.5614 11.4314 22.5377 11.1901 22.447 10.9708C22.3563 10.7515 22.2025 10.564 22.0052 10.4321C21.808 10.3001 21.576 10.2297 21.3386 10.2296H21.3382C21.02 10.2297 20.715 10.3561 20.49 10.581C20.265 10.806 20.1384 11.111 20.1382 11.4291ZM11.96 24.9073C10.985 24.8629 10.4551 24.7005 10.103 24.5633C9.63608 24.3816 9.30296 24.1651 8.95272 23.8153C8.60248 23.4656 8.38568 23.1328 8.20472 22.6659C8.06744 22.3139 7.90504 21.7838 7.86072 20.8089C7.81224 19.7548 7.80256 19.4381 7.80256 16.7677C7.80256 14.0972 7.81304 13.7814 7.86072 12.7265C7.90512 11.7515 8.06872 11.2225 8.20472 10.8694C8.38648 10.4025 8.60296 10.0694 8.95272 9.71918C9.30248 9.36894 9.63528 9.15214 10.103 8.97118C10.455 8.8339 10.985 8.6715 11.96 8.62718C13.0141 8.5787 13.3307 8.56902 16 8.56902C18.6693 8.56902 18.9862 8.5795 20.0412 8.62718C21.0162 8.67158 21.5452 8.83518 21.8982 8.97118C22.3651 9.15214 22.6982 9.36942 23.0485 9.71918C23.3987 10.0689 23.6147 10.4025 23.7965 10.8694C23.9338 11.2214 24.0962 11.7515 24.1405 12.7265C24.189 13.7814 24.1986 14.0972 24.1986 16.7677C24.1986 19.4381 24.189 19.7539 24.1405 20.8089C24.0961 21.7838 23.9329 22.3137 23.7965 22.6659C23.6147 23.1328 23.3982 23.4659 23.0485 23.8153C22.6987 24.1648 22.3651 24.3816 21.8982 24.5633C21.5462 24.7006 21.0162 24.863 20.0412 24.9073C18.9871 24.9558 18.6705 24.9655 16 24.9655C13.3295 24.9655 13.0138 24.9558 11.96 24.9073ZM11.8772 6.82814C10.8126 6.87662 10.0852 7.04542 9.44992 7.29262C8.792 7.5479 8.23504 7.89038 7.67848 8.44606C7.12192 9.00174 6.78032 9.55958 6.52504 10.2175C6.27784 10.8532 6.10904 11.5802 6.06056 12.6448C6.01128 13.711 6 14.0519 6 16.7676C6 19.4833 6.01128 19.8241 6.06056 20.8904C6.10904 21.955 6.27784 22.682 6.52504 23.3177C6.78032 23.9752 7.122 24.5337 7.67848 25.0891C8.23496 25.6445 8.792 25.9865 9.44992 26.2425C10.0864 26.4897 10.8126 26.6585 11.8772 26.707C12.944 26.7555 13.2843 26.7676 16 26.7676C18.7157 26.7676 19.0566 26.7563 20.1228 26.707C21.1874 26.6585 21.9144 26.4897 22.5501 26.2425C23.2076 25.9865 23.765 25.6448 24.3215 25.0891C24.8781 24.5334 25.219 23.9752 25.475 23.3177C25.7222 22.682 25.8918 21.9549 25.9394 20.8904C25.9879 19.8233 25.9992 19.4833 25.9992 16.7676C25.9992 14.0519 25.9879 13.711 25.9394 12.6448C25.891 11.5801 25.7222 10.8528 25.475 10.2175C25.219 9.55998 24.8772 9.00262 24.3215 8.44606C23.7658 7.8895 23.2076 7.5479 22.5509 7.29262C21.9144 7.04542 21.1874 6.87582 20.1236 6.82814C19.0574 6.77966 18.7165 6.76758 16.0008 6.76758C13.2851 6.76758 12.944 6.77886 11.8772 6.82814Z" fill="#060F42"/>
</svg>
