<svg width="32" height="33" viewBox="0 0 32 33" fill="none" xmlns="http://www.w3.org/2000/svg">
<rect y="0.767578" width="32" height="32" rx="16" fill="#F4F8FB"/>
<path d="M24 18.5764V24.7676H20.5699V18.9913C20.5699 17.5409 20.0747 16.5505 18.8328 16.5505C17.885 16.5505 17.322 17.2173 17.0734 17.863C16.9831 18.0937 16.9598 18.4142 16.9598 18.7378V24.7673H13.5294C13.5294 24.7673 13.5755 14.9842 13.5294 13.9715H16.96V15.5014C16.9531 15.5134 16.9434 15.5252 16.9373 15.5367H16.96V15.5014C17.4159 14.7674 18.2288 13.718 20.0514 13.718C22.3081 13.718 24 15.261 24 18.5764ZM9.94104 8.76758C8.76767 8.76758 8 9.5736 8 10.6326C8 11.6691 8.74541 12.4984 9.89602 12.4984H9.91827C11.1147 12.4984 11.8585 11.6691 11.8585 10.6326C11.8358 9.5736 11.1147 8.76758 9.94104 8.76758ZM8.20388 24.7676H11.6329V13.9715H8.20388V24.7676Z" fill="#060F42"/>
</svg>
