<svg width="32" height="33" viewBox="0 0 32 33" fill="none" xmlns="http://www.w3.org/2000/svg">
<g clip-path="url(#clip0_6879_9241)">
<path d="M16 32.7676C24.8366 32.7676 32 25.6041 32 16.7676C32 7.93102 24.8366 0.767578 16 0.767578C7.16344 0.767578 0 7.93102 0 16.7676C0 25.6041 7.16344 32.7676 16 32.7676Z" fill="#F4F8FB"/>
<path d="M23.9806 9.11314C24.6185 8.86427 25.2779 9.42239 25.1378 10.0925L22.2772 23.7663C22.1436 24.4074 21.3904 24.6961 20.8625 24.3083L16.5441 21.1384L14.3429 23.386C13.9561 23.7804 13.2892 23.6198 13.1232 23.094L11.5351 18.0526L7.27812 16.7953C6.71893 16.6304 6.68662 15.8525 7.22855 15.6403L23.9806 9.11314ZM21.8807 12.1472C22.0671 11.9823 21.8505 11.6915 21.6393 11.8229L12.4509 17.5215C12.2892 17.6216 12.2149 17.8188 12.272 18.0009L13.5251 23.5034C13.5499 23.5874 13.6705 23.5756 13.6813 23.4883L13.9614 19.2949C13.9722 19.1915 14.0217 19.0967 14.0994 19.0278L21.8807 12.1472Z" fill="#060F42"/>
<path d="M21.6402 11.8222C21.8514 11.6908 22.068 11.9816 21.8816 12.1465L14.1004 19.0271C14.0228 19.096 13.9732 19.1908 13.9624 19.2943L13.6823 23.4876C13.6716 23.5749 13.5509 23.5868 13.5261 23.5027L12.273 18.0002C12.2159 17.8181 12.2902 17.621 12.4519 17.5208L21.6402 11.8222Z" fill="#9EC2E5"/>
<path d="M14.2902 23.4375C14.2707 23.4538 14.2511 23.469 14.2305 23.4831V23.482C14.2511 23.4679 14.2707 23.4538 14.2902 23.4375Z" fill="#DADDE0"/>
<path d="M14.1016 23.5508C14.1461 23.5324 14.1884 23.5096 14.2297 23.4824C14.1884 23.5095 14.145 23.5323 14.1016 23.5508Z" fill="#DADDE0"/>
<path d="M13.75 23.6001C13.8448 23.6098 13.9407 23.6022 14.0344 23.5742C13.9666 23.5958 13.8965 23.6055 13.8265 23.6055C13.8049 23.6055 13.7834 23.6044 13.7629 23.6022C13.7586 23.6023 13.7543 23.6023 13.75 23.6001Z" fill="#DADDE0"/>
<path d="M13.8258 23.6048C13.804 23.6048 13.7823 23.6038 13.7617 23.6016C13.7823 23.6038 13.804 23.6048 13.8258 23.6048Z" fill="white"/>
<path d="M13.747 23.6003C13.7513 23.6024 13.7556 23.6024 13.7599 23.6024C13.7373 23.6013 13.7168 23.5981 13.6953 23.5938C13.7125 23.5971 13.7298 23.5992 13.747 23.6003Z" fill="white"/>
<path d="M13.749 23.6006C13.7318 23.5995 13.7145 23.5973 13.6973 23.5942C13.6898 23.5931 13.6823 23.592 13.6758 23.5898C13.6995 23.5942 13.7242 23.5985 13.749 23.6006Z" fill="#DADDE0"/>
<path d="M13.5938 23.5664C13.6174 23.574 13.6412 23.5804 13.6649 23.5869C13.6552 23.5848 13.6455 23.5826 13.6358 23.5805C13.6315 23.5794 13.6272 23.5783 13.6239 23.5762C13.6142 23.574 13.6034 23.5707 13.5938 23.5664Z" fill="#DADDE0"/>
<path d="M13.6406 23.5801C13.6491 23.5819 13.6575 23.5838 13.666 23.5857C13.6575 23.5848 13.6491 23.5829 13.6406 23.5801Z" fill="white"/>
<path d="M13.5966 23.566C13.6063 23.5703 13.6172 23.5736 13.627 23.5757C13.6107 23.5725 13.5944 23.567 13.5781 23.5605C13.5846 23.5627 13.59 23.5649 13.5966 23.566Z" fill="white"/>
<path d="M13.5913 23.5665C13.5853 23.5656 13.5803 23.5635 13.5743 23.5616C13.5733 23.5625 13.5713 23.5616 13.5703 23.5606V23.5586C13.5773 23.5625 13.5843 23.5645 13.5913 23.5665Z" fill="#DADDE0"/>
<path d="M13.5195 21.4863L13.5702 23.5571C13.5529 23.5518 13.5357 23.5453 13.5195 23.5378V21.4863Z" fill="#D1D1D1"/>
<path d="M13.5195 18.9749V21.4876L13.457 18.9297L13.5195 18.9749Z" fill="#DADDE0"/>
<path d="M21.8816 12.1465L14.1004 19.027C14.0228 19.096 13.9732 19.1908 13.9624 19.2942L13.6828 23.488C13.6721 23.5752 13.5514 23.5871 13.5255 23.503L12.273 18.0002C12.2159 17.8182 12.2902 17.621 12.4519 17.5208L21.6403 11.8222C21.8515 11.6907 22.0681 11.9817 21.8816 12.1465Z" fill="#F4F8FB"/>
</g>
<defs>
<clipPath id="clip0_6879_9241">
<rect width="32" height="32" fill="white" transform="translate(0 0.767578)"/>
</clipPath>
</defs>
</svg>
