<svg width="32" height="33" viewBox="0 0 32 33" fill="none" xmlns="http://www.w3.org/2000/svg">
<rect y="0.767578" width="32" height="32.0032" rx="16" fill="#F4F8FB"/>
<path fill-rule="evenodd" clip-rule="evenodd" d="M23.8253 10.1959C24.682 10.4266 25.3574 11.102 25.5881 11.9587C26.0164 13.5237 25.9999 16.7857 25.9999 16.7857C25.9999 16.7857 25.9999 20.0311 25.5881 21.5962C25.3574 22.4529 24.682 23.1283 23.8253 23.359C22.2602 23.7708 16 23.7708 16 23.7708C16 23.7708 9.75616 23.7708 8.17462 23.3425C7.31795 23.1118 6.6425 22.4364 6.41186 21.5797C6 20.0311 6 16.7692 6 16.7692C6 16.7692 6 13.5237 6.41186 11.9587C6.6425 11.102 7.33443 10.4101 8.17462 10.1794C9.73969 9.76758 16 9.76758 16 9.76758C16 9.76758 22.2602 9.76758 23.8253 10.1959ZM19 16.7692L14 19.7676V13.7709L19 16.7692Z" fill="#060F42"/>
</svg>
